<svg width="512" height="512" viewBox="0 0 512 512" fill="none" xmlns="http://www.w3.org/2000/svg">
  <!-- Background -->
  <rect width="512" height="512" rx="115" fill="url(#gradient)"/>
  
  <!-- Shield/Badge Shape -->
  <path d="M256 80L140 120V240C140 320 180 380 256 432C332 380 372 320 372 240V120L256 80Z" fill="white" fill-opacity="0.15"/>
  
  <!-- Tire Icon -->
  <g transform="translate(256, 256)">
    <!-- Outer Ring -->
    <circle cx="0" cy="0" r="110" fill="none" stroke="white" stroke-width="16"/>
    
    <!-- Inner Ring -->
    <circle cx="0" cy="0" r="70" fill="none" stroke="white" stroke-width="12"/>
    
    <!-- Spokes -->
    <line x1="-90" y1="0" x2="-50" y2="0" stroke="white" stroke-width="10" stroke-linecap="round"/>
    <line x1="90" y1="0" x2="50" y2="0" stroke="white" stroke-width="10" stroke-linecap="round"/>
    <line x1="0" y1="-90" x2="0" y2="-50" stroke="white" stroke-width="10" stroke-linecap="round"/>
    <line x1="0" y1="90" x2="0" y2="50" stroke="white" stroke-width="10" stroke-linecap="round"/>
    
    <!-- Diagonal Spokes -->
    <line x1="-63" y1="-63" x2="-35" y2="-35" stroke="white" stroke-width="10" stroke-linecap="round"/>
    <line x1="63" y1="63" x2="35" y2="35" stroke="white" stroke-width="10" stroke-linecap="round"/>
    <line x1="63" y1="-63" x2="35" y2="-35" stroke="white" stroke-width="10" stroke-linecap="round"/>
    <line x1="-63" y1="63" x2="-35" y2="35" stroke="white" stroke-width="10" stroke-linecap="round"/>
    
    <!-- Center Hub -->
    <circle cx="0" cy="0" r="25" fill="white"/>
    <circle cx="0" cy="0" r="15" fill="#D50000"/>
  </g>
  
  <!-- Text -->
  <text x="256" y="420" font-family="Arial, sans-serif" font-size="32" font-weight="bold" fill="white" text-anchor="middle">PORSCHE CUP</text>
  <text x="256" y="455" font-family="Arial, sans-serif" font-size="18" font-weight="600" fill="white" fill-opacity="0.9" text-anchor="middle">Gestão de Pneus</text>
  
  <!-- Gradient Definition -->
  <defs>
    <linearGradient id="gradient" x1="0%" y1="0%" x2="100%" y2="100%">
      <stop offset="0%" style="stop-color:#D50000;stop-opacity:1" />
      <stop offset="100%" style="stop-color:#A80000;stop-opacity:1" />
    </linearGradient>
  </defs>
</svg>
